<mxfile host="app.diagrams.net" agent="Mozilla/5.0 (Macintosh; Intel Mac OS X 10_15_7) AppleWebKit/537.36 (KHTML, like Gecko) Chrome/127.0.0.0 Safari/537.36" version="24.7.7">
  <diagram name="Page-1" id="beZdznRcG9-f0vUQqaKj">
    <mxGraphModel dx="475" dy="737" grid="1" gridSize="10" guides="1" tooltips="1" connect="1" arrows="1" fold="1" page="1" pageScale="1" pageWidth="850" pageHeight="1100" math="0" shadow="0">
      <root>
        <mxCell id="0" />
        <mxCell id="1" parent="0" />
        <mxCell id="dkvcmX8ApIPCvExKEDzm-1" value="" style="rounded=0;whiteSpace=wrap;html=1;fillColor=#2e7956;direction=south;" vertex="1" parent="1">
          <mxGeometry x="960" y="280" width="250" height="820" as="geometry" />
        </mxCell>
        <mxCell id="dkvcmX8ApIPCvExKEDzm-4" value="" style="rounded=0;whiteSpace=wrap;html=1;fillColor=#e5dc7b;direction=south;" vertex="1" parent="1">
          <mxGeometry x="960" y="290" width="20" height="10" as="geometry" />
        </mxCell>
        <mxCell id="dkvcmX8ApIPCvExKEDzm-5" value="" style="shape=or;whiteSpace=wrap;html=1;direction=east;" vertex="1" parent="1">
          <mxGeometry x="960" y="685" width="30" height="15" as="geometry" />
        </mxCell>
        <mxCell id="dkvcmX8ApIPCvExKEDzm-8" value="&lt;span style=&quot;color: rgb(163, 159, 159); font-size: 22px;&quot;&gt;x4&lt;/span&gt;" style="rounded=0;whiteSpace=wrap;html=1;strokeColor=#454744;fillColor=#464646;direction=south;" vertex="1" parent="1">
          <mxGeometry x="1020" y="740" width="80" height="60" as="geometry" />
        </mxCell>
        <mxCell id="dkvcmX8ApIPCvExKEDzm-10" value="&lt;span style=&quot;color: rgb(163, 159, 159); font-size: 22px;&quot;&gt;x4&lt;/span&gt;" style="rounded=0;whiteSpace=wrap;html=1;strokeColor=#454744;fillColor=#464646;direction=south;" vertex="1" parent="1">
          <mxGeometry x="1020" y="810" width="80" height="60" as="geometry" />
        </mxCell>
        <mxCell id="dkvcmX8ApIPCvExKEDzm-11" value="&lt;span style=&quot;color: rgb(163, 159, 159); font-size: 22px;&quot;&gt;x4&lt;/span&gt;" style="rounded=0;whiteSpace=wrap;html=1;strokeColor=#454744;fillColor=#464646;direction=south;" vertex="1" parent="1">
          <mxGeometry x="1020" y="880" width="80" height="60" as="geometry" />
        </mxCell>
        <mxCell id="dkvcmX8ApIPCvExKEDzm-12" value="&lt;span style=&quot;color: rgb(163, 159, 159); font-size: 22px;&quot;&gt;x4&lt;/span&gt;" style="rounded=0;whiteSpace=wrap;html=1;strokeColor=#454744;fillColor=#464646;direction=south;" vertex="1" parent="1">
          <mxGeometry x="1020" y="1020" width="80" height="60" as="geometry" />
        </mxCell>
        <mxCell id="dkvcmX8ApIPCvExKEDzm-13" value="&lt;span style=&quot;color: rgb(163, 159, 159); font-size: 22px;&quot;&gt;x4&lt;/span&gt;" style="rounded=0;whiteSpace=wrap;html=1;strokeColor=#454744;fillColor=#464646;direction=south;" vertex="1" parent="1">
          <mxGeometry x="1020" y="950" width="80" height="60" as="geometry" />
        </mxCell>
        <mxCell id="dkvcmX8ApIPCvExKEDzm-14" value="" style="rounded=0;whiteSpace=wrap;html=1;fillColor=#e5dc7b;direction=south;" vertex="1" parent="1">
          <mxGeometry x="960" y="300" width="20" height="10" as="geometry" />
        </mxCell>
        <mxCell id="dkvcmX8ApIPCvExKEDzm-15" value="" style="rounded=0;whiteSpace=wrap;html=1;fillColor=#e5dc7b;direction=south;" vertex="1" parent="1">
          <mxGeometry x="960" y="310" width="20" height="10" as="geometry" />
        </mxCell>
        <mxCell id="dkvcmX8ApIPCvExKEDzm-16" value="" style="rounded=0;whiteSpace=wrap;html=1;fillColor=#e5dc7b;direction=south;" vertex="1" parent="1">
          <mxGeometry x="960" y="320" width="20" height="10" as="geometry" />
        </mxCell>
        <mxCell id="dkvcmX8ApIPCvExKEDzm-17" value="" style="rounded=0;whiteSpace=wrap;html=1;fillColor=#e5dc7b;direction=south;" vertex="1" parent="1">
          <mxGeometry x="960" y="330" width="20" height="10" as="geometry" />
        </mxCell>
        <mxCell id="dkvcmX8ApIPCvExKEDzm-18" value="" style="rounded=0;whiteSpace=wrap;html=1;fillColor=#e5dc7b;direction=south;" vertex="1" parent="1">
          <mxGeometry x="960" y="340" width="20" height="10" as="geometry" />
        </mxCell>
        <mxCell id="dkvcmX8ApIPCvExKEDzm-19" value="" style="rounded=0;whiteSpace=wrap;html=1;fillColor=#e5dc7b;direction=south;" vertex="1" parent="1">
          <mxGeometry x="960" y="350" width="20" height="10" as="geometry" />
        </mxCell>
        <mxCell id="dkvcmX8ApIPCvExKEDzm-20" value="" style="rounded=0;whiteSpace=wrap;html=1;fillColor=#e5dc7b;direction=south;" vertex="1" parent="1">
          <mxGeometry x="960" y="360" width="20" height="10" as="geometry" />
        </mxCell>
        <mxCell id="dkvcmX8ApIPCvExKEDzm-21" value="" style="rounded=0;whiteSpace=wrap;html=1;fillColor=#e5dc7b;direction=south;" vertex="1" parent="1">
          <mxGeometry x="960" y="370" width="20" height="10" as="geometry" />
        </mxCell>
        <mxCell id="dkvcmX8ApIPCvExKEDzm-22" value="" style="rounded=0;whiteSpace=wrap;html=1;fillColor=#e5dc7b;direction=south;" vertex="1" parent="1">
          <mxGeometry x="960" y="380" width="20" height="10" as="geometry" />
        </mxCell>
        <mxCell id="dkvcmX8ApIPCvExKEDzm-23" value="" style="rounded=0;whiteSpace=wrap;html=1;fillColor=#e5dc7b;direction=south;" vertex="1" parent="1">
          <mxGeometry x="960" y="390" width="20" height="10" as="geometry" />
        </mxCell>
        <mxCell id="dkvcmX8ApIPCvExKEDzm-24" value="" style="rounded=0;whiteSpace=wrap;html=1;fillColor=#e5dc7b;direction=south;" vertex="1" parent="1">
          <mxGeometry x="960" y="400" width="20" height="10" as="geometry" />
        </mxCell>
        <mxCell id="dkvcmX8ApIPCvExKEDzm-25" value="" style="rounded=0;whiteSpace=wrap;html=1;fillColor=#e5dc7b;direction=south;" vertex="1" parent="1">
          <mxGeometry x="960" y="410" width="20" height="10" as="geometry" />
        </mxCell>
        <mxCell id="dkvcmX8ApIPCvExKEDzm-26" value="" style="rounded=0;whiteSpace=wrap;html=1;fillColor=#e5dc7b;direction=south;" vertex="1" parent="1">
          <mxGeometry x="960" y="420" width="20" height="10" as="geometry" />
        </mxCell>
        <mxCell id="dkvcmX8ApIPCvExKEDzm-27" value="" style="rounded=0;whiteSpace=wrap;html=1;fillColor=#e5dc7b;direction=south;" vertex="1" parent="1">
          <mxGeometry x="960" y="430" width="20" height="10" as="geometry" />
        </mxCell>
        <mxCell id="dkvcmX8ApIPCvExKEDzm-28" value="" style="rounded=0;whiteSpace=wrap;html=1;fillColor=#e5dc7b;direction=south;" vertex="1" parent="1">
          <mxGeometry x="960" y="440" width="20" height="10" as="geometry" />
        </mxCell>
        <mxCell id="dkvcmX8ApIPCvExKEDzm-29" value="" style="rounded=0;whiteSpace=wrap;html=1;fillColor=#e5dc7b;direction=south;" vertex="1" parent="1">
          <mxGeometry x="960" y="450" width="20" height="10" as="geometry" />
        </mxCell>
        <mxCell id="dkvcmX8ApIPCvExKEDzm-30" value="" style="rounded=0;whiteSpace=wrap;html=1;fillColor=#e5dc7b;direction=south;" vertex="1" parent="1">
          <mxGeometry x="960" y="460" width="20" height="10" as="geometry" />
        </mxCell>
        <mxCell id="dkvcmX8ApIPCvExKEDzm-31" value="" style="rounded=0;whiteSpace=wrap;html=1;fillColor=#e5dc7b;direction=south;" vertex="1" parent="1">
          <mxGeometry x="960" y="470" width="20" height="10" as="geometry" />
        </mxCell>
        <mxCell id="dkvcmX8ApIPCvExKEDzm-32" value="" style="rounded=0;whiteSpace=wrap;html=1;fillColor=#e5dc7b;direction=south;" vertex="1" parent="1">
          <mxGeometry x="960" y="480" width="20" height="10" as="geometry" />
        </mxCell>
        <mxCell id="dkvcmX8ApIPCvExKEDzm-33" value="" style="rounded=0;whiteSpace=wrap;html=1;fillColor=#e5dc7b;direction=south;" vertex="1" parent="1">
          <mxGeometry x="960" y="490" width="20" height="10" as="geometry" />
        </mxCell>
        <mxCell id="dkvcmX8ApIPCvExKEDzm-34" value="" style="rounded=0;whiteSpace=wrap;html=1;fillColor=#e5dc7b;direction=south;" vertex="1" parent="1">
          <mxGeometry x="960" y="500" width="20" height="10" as="geometry" />
        </mxCell>
        <mxCell id="dkvcmX8ApIPCvExKEDzm-35" value="" style="rounded=0;whiteSpace=wrap;html=1;fillColor=#e5dc7b;direction=south;" vertex="1" parent="1">
          <mxGeometry x="960" y="510" width="20" height="10" as="geometry" />
        </mxCell>
        <mxCell id="dkvcmX8ApIPCvExKEDzm-36" value="" style="rounded=0;whiteSpace=wrap;html=1;fillColor=#e5dc7b;direction=south;" vertex="1" parent="1">
          <mxGeometry x="960" y="520" width="20" height="10" as="geometry" />
        </mxCell>
        <mxCell id="dkvcmX8ApIPCvExKEDzm-37" value="" style="rounded=0;whiteSpace=wrap;html=1;fillColor=#e5dc7b;direction=south;" vertex="1" parent="1">
          <mxGeometry x="960" y="530" width="20" height="10" as="geometry" />
        </mxCell>
        <mxCell id="dkvcmX8ApIPCvExKEDzm-38" value="" style="rounded=0;whiteSpace=wrap;html=1;fillColor=#e5dc7b;direction=south;" vertex="1" parent="1">
          <mxGeometry x="960" y="540" width="20" height="10" as="geometry" />
        </mxCell>
        <mxCell id="dkvcmX8ApIPCvExKEDzm-39" value="" style="rounded=0;whiteSpace=wrap;html=1;fillColor=#e5dc7b;direction=south;" vertex="1" parent="1">
          <mxGeometry x="960" y="550" width="20" height="10" as="geometry" />
        </mxCell>
        <mxCell id="dkvcmX8ApIPCvExKEDzm-40" value="" style="rounded=0;whiteSpace=wrap;html=1;fillColor=#e5dc7b;direction=south;" vertex="1" parent="1">
          <mxGeometry x="960" y="560" width="20" height="10" as="geometry" />
        </mxCell>
        <mxCell id="dkvcmX8ApIPCvExKEDzm-41" value="" style="rounded=0;whiteSpace=wrap;html=1;fillColor=#e5dc7b;direction=south;" vertex="1" parent="1">
          <mxGeometry x="960" y="570" width="20" height="10" as="geometry" />
        </mxCell>
        <mxCell id="dkvcmX8ApIPCvExKEDzm-42" value="" style="rounded=0;whiteSpace=wrap;html=1;fillColor=#e5dc7b;direction=south;" vertex="1" parent="1">
          <mxGeometry x="960" y="580" width="20" height="10" as="geometry" />
        </mxCell>
        <mxCell id="dkvcmX8ApIPCvExKEDzm-43" value="" style="rounded=0;whiteSpace=wrap;html=1;fillColor=#e5dc7b;direction=south;" vertex="1" parent="1">
          <mxGeometry x="960" y="590" width="20" height="10" as="geometry" />
        </mxCell>
        <mxCell id="dkvcmX8ApIPCvExKEDzm-44" value="" style="rounded=0;whiteSpace=wrap;html=1;fillColor=#e5dc7b;direction=south;" vertex="1" parent="1">
          <mxGeometry x="960" y="600" width="20" height="10" as="geometry" />
        </mxCell>
        <mxCell id="dkvcmX8ApIPCvExKEDzm-45" value="" style="rounded=0;whiteSpace=wrap;html=1;fillColor=#e5dc7b;direction=south;" vertex="1" parent="1">
          <mxGeometry x="960" y="610" width="20" height="10" as="geometry" />
        </mxCell>
        <mxCell id="dkvcmX8ApIPCvExKEDzm-46" value="" style="rounded=0;whiteSpace=wrap;html=1;fillColor=#e5dc7b;direction=south;" vertex="1" parent="1">
          <mxGeometry x="960" y="620" width="20" height="10" as="geometry" />
        </mxCell>
        <mxCell id="dkvcmX8ApIPCvExKEDzm-47" value="" style="rounded=0;whiteSpace=wrap;html=1;fillColor=#e5dc7b;direction=south;" vertex="1" parent="1">
          <mxGeometry x="960" y="630" width="20" height="10" as="geometry" />
        </mxCell>
        <mxCell id="dkvcmX8ApIPCvExKEDzm-48" value="" style="rounded=0;whiteSpace=wrap;html=1;fillColor=#e5dc7b;direction=south;" vertex="1" parent="1">
          <mxGeometry x="960" y="640" width="20" height="10" as="geometry" />
        </mxCell>
        <mxCell id="dkvcmX8ApIPCvExKEDzm-49" value="" style="rounded=0;whiteSpace=wrap;html=1;fillColor=#e5dc7b;direction=south;" vertex="1" parent="1">
          <mxGeometry x="960" y="650" width="20" height="10" as="geometry" />
        </mxCell>
        <mxCell id="dkvcmX8ApIPCvExKEDzm-50" value="" style="rounded=0;whiteSpace=wrap;html=1;fillColor=#e5dc7b;direction=south;" vertex="1" parent="1">
          <mxGeometry x="960" y="660" width="20" height="10" as="geometry" />
        </mxCell>
        <mxCell id="dkvcmX8ApIPCvExKEDzm-51" value="" style="rounded=0;whiteSpace=wrap;html=1;fillColor=#e5dc7b;direction=south;" vertex="1" parent="1">
          <mxGeometry x="960" y="670" width="20" height="10" as="geometry" />
        </mxCell>
        <mxCell id="dkvcmX8ApIPCvExKEDzm-52" value="" style="rounded=0;whiteSpace=wrap;html=1;fillColor=#e5dc7b;direction=south;" vertex="1" parent="1">
          <mxGeometry x="960" y="710" width="20" height="10" as="geometry" />
        </mxCell>
        <mxCell id="dkvcmX8ApIPCvExKEDzm-53" value="" style="rounded=0;whiteSpace=wrap;html=1;fillColor=#e5dc7b;direction=south;" vertex="1" parent="1">
          <mxGeometry x="960" y="720" width="20" height="10" as="geometry" />
        </mxCell>
        <mxCell id="dkvcmX8ApIPCvExKEDzm-54" value="" style="rounded=0;whiteSpace=wrap;html=1;fillColor=#e5dc7b;direction=south;" vertex="1" parent="1">
          <mxGeometry x="960" y="730" width="20" height="10" as="geometry" />
        </mxCell>
        <mxCell id="dkvcmX8ApIPCvExKEDzm-55" value="" style="rounded=0;whiteSpace=wrap;html=1;fillColor=#e5dc7b;direction=south;" vertex="1" parent="1">
          <mxGeometry x="960" y="740" width="20" height="10" as="geometry" />
        </mxCell>
        <mxCell id="dkvcmX8ApIPCvExKEDzm-56" value="" style="rounded=0;whiteSpace=wrap;html=1;fillColor=#e5dc7b;direction=south;" vertex="1" parent="1">
          <mxGeometry x="960" y="750" width="20" height="10" as="geometry" />
        </mxCell>
        <mxCell id="dkvcmX8ApIPCvExKEDzm-57" value="" style="rounded=0;whiteSpace=wrap;html=1;fillColor=#e5dc7b;direction=south;" vertex="1" parent="1">
          <mxGeometry x="960" y="760" width="20" height="10" as="geometry" />
        </mxCell>
        <mxCell id="dkvcmX8ApIPCvExKEDzm-58" value="" style="rounded=0;whiteSpace=wrap;html=1;fillColor=#e5dc7b;direction=south;" vertex="1" parent="1">
          <mxGeometry x="960" y="770" width="20" height="10" as="geometry" />
        </mxCell>
        <mxCell id="dkvcmX8ApIPCvExKEDzm-59" value="" style="rounded=0;whiteSpace=wrap;html=1;fillColor=#e5dc7b;direction=south;" vertex="1" parent="1">
          <mxGeometry x="960" y="780" width="20" height="10" as="geometry" />
        </mxCell>
        <mxCell id="dkvcmX8ApIPCvExKEDzm-60" value="" style="rounded=0;whiteSpace=wrap;html=1;fillColor=#e5dc7b;direction=south;" vertex="1" parent="1">
          <mxGeometry x="960" y="790" width="20" height="10" as="geometry" />
        </mxCell>
        <mxCell id="dkvcmX8ApIPCvExKEDzm-61" value="" style="rounded=0;whiteSpace=wrap;html=1;fillColor=#e5dc7b;direction=south;" vertex="1" parent="1">
          <mxGeometry x="960" y="800" width="20" height="10" as="geometry" />
        </mxCell>
        <mxCell id="dkvcmX8ApIPCvExKEDzm-62" value="" style="rounded=0;whiteSpace=wrap;html=1;fillColor=#e5dc7b;direction=south;" vertex="1" parent="1">
          <mxGeometry x="960" y="810" width="20" height="10" as="geometry" />
        </mxCell>
        <mxCell id="dkvcmX8ApIPCvExKEDzm-63" value="" style="rounded=0;whiteSpace=wrap;html=1;fillColor=#e5dc7b;direction=south;" vertex="1" parent="1">
          <mxGeometry x="960" y="820" width="20" height="10" as="geometry" />
        </mxCell>
        <mxCell id="dkvcmX8ApIPCvExKEDzm-64" value="" style="rounded=0;whiteSpace=wrap;html=1;fillColor=#e5dc7b;direction=south;" vertex="1" parent="1">
          <mxGeometry x="960" y="830" width="20" height="10" as="geometry" />
        </mxCell>
        <mxCell id="dkvcmX8ApIPCvExKEDzm-65" value="" style="rounded=0;whiteSpace=wrap;html=1;fillColor=#e5dc7b;direction=south;" vertex="1" parent="1">
          <mxGeometry x="960" y="840" width="20" height="10" as="geometry" />
        </mxCell>
        <mxCell id="dkvcmX8ApIPCvExKEDzm-66" value="" style="rounded=0;whiteSpace=wrap;html=1;fillColor=#e5dc7b;direction=south;" vertex="1" parent="1">
          <mxGeometry x="960" y="850" width="20" height="10" as="geometry" />
        </mxCell>
        <mxCell id="dkvcmX8ApIPCvExKEDzm-67" value="" style="rounded=0;whiteSpace=wrap;html=1;fillColor=#e5dc7b;direction=south;" vertex="1" parent="1">
          <mxGeometry x="960" y="860" width="20" height="10" as="geometry" />
        </mxCell>
        <mxCell id="dkvcmX8ApIPCvExKEDzm-68" value="" style="rounded=0;whiteSpace=wrap;html=1;fillColor=#e5dc7b;direction=south;" vertex="1" parent="1">
          <mxGeometry x="960" y="870" width="20" height="10" as="geometry" />
        </mxCell>
        <mxCell id="dkvcmX8ApIPCvExKEDzm-69" value="" style="rounded=0;whiteSpace=wrap;html=1;fillColor=#e5dc7b;direction=south;" vertex="1" parent="1">
          <mxGeometry x="960" y="880" width="20" height="10" as="geometry" />
        </mxCell>
        <mxCell id="dkvcmX8ApIPCvExKEDzm-70" value="" style="rounded=0;whiteSpace=wrap;html=1;fillColor=#e5dc7b;direction=south;" vertex="1" parent="1">
          <mxGeometry x="960" y="890" width="20" height="10" as="geometry" />
        </mxCell>
        <mxCell id="dkvcmX8ApIPCvExKEDzm-71" value="" style="rounded=0;whiteSpace=wrap;html=1;fillColor=#e5dc7b;direction=south;" vertex="1" parent="1">
          <mxGeometry x="960" y="900" width="20" height="10" as="geometry" />
        </mxCell>
        <mxCell id="dkvcmX8ApIPCvExKEDzm-72" value="" style="rounded=0;whiteSpace=wrap;html=1;fillColor=#e5dc7b;direction=south;" vertex="1" parent="1">
          <mxGeometry x="960" y="910" width="20" height="10" as="geometry" />
        </mxCell>
        <mxCell id="dkvcmX8ApIPCvExKEDzm-73" value="" style="rounded=0;whiteSpace=wrap;html=1;fillColor=#e5dc7b;direction=south;" vertex="1" parent="1">
          <mxGeometry x="960" y="920" width="20" height="10" as="geometry" />
        </mxCell>
        <mxCell id="dkvcmX8ApIPCvExKEDzm-74" value="" style="rounded=0;whiteSpace=wrap;html=1;fillColor=#e5dc7b;direction=south;" vertex="1" parent="1">
          <mxGeometry x="960" y="930" width="20" height="10" as="geometry" />
        </mxCell>
        <mxCell id="dkvcmX8ApIPCvExKEDzm-75" value="" style="rounded=0;whiteSpace=wrap;html=1;fillColor=#e5dc7b;direction=south;" vertex="1" parent="1">
          <mxGeometry x="960" y="940" width="20" height="10" as="geometry" />
        </mxCell>
        <mxCell id="dkvcmX8ApIPCvExKEDzm-76" value="" style="rounded=0;whiteSpace=wrap;html=1;fillColor=#e5dc7b;direction=south;" vertex="1" parent="1">
          <mxGeometry x="960" y="950" width="20" height="10" as="geometry" />
        </mxCell>
        <mxCell id="dkvcmX8ApIPCvExKEDzm-77" value="" style="rounded=0;whiteSpace=wrap;html=1;fillColor=#e5dc7b;direction=south;" vertex="1" parent="1">
          <mxGeometry x="960" y="960" width="20" height="10" as="geometry" />
        </mxCell>
        <mxCell id="dkvcmX8ApIPCvExKEDzm-78" value="" style="rounded=0;whiteSpace=wrap;html=1;fillColor=#e5dc7b;direction=south;" vertex="1" parent="1">
          <mxGeometry x="960" y="970" width="20" height="10" as="geometry" />
        </mxCell>
        <mxCell id="dkvcmX8ApIPCvExKEDzm-79" value="" style="rounded=0;whiteSpace=wrap;html=1;fillColor=#e5dc7b;direction=south;" vertex="1" parent="1">
          <mxGeometry x="960" y="980" width="20" height="10" as="geometry" />
        </mxCell>
        <mxCell id="dkvcmX8ApIPCvExKEDzm-80" value="" style="rounded=0;whiteSpace=wrap;html=1;fillColor=#e5dc7b;direction=south;" vertex="1" parent="1">
          <mxGeometry x="960" y="990" width="20" height="10" as="geometry" />
        </mxCell>
        <mxCell id="dkvcmX8ApIPCvExKEDzm-81" value="" style="rounded=0;whiteSpace=wrap;html=1;fillColor=#e5dc7b;direction=south;" vertex="1" parent="1">
          <mxGeometry x="960" y="1000" width="20" height="10" as="geometry" />
        </mxCell>
        <mxCell id="dkvcmX8ApIPCvExKEDzm-82" value="" style="rounded=0;whiteSpace=wrap;html=1;fillColor=#e5dc7b;direction=south;" vertex="1" parent="1">
          <mxGeometry x="960" y="1010" width="20" height="10" as="geometry" />
        </mxCell>
        <mxCell id="dkvcmX8ApIPCvExKEDzm-83" value="" style="rounded=0;whiteSpace=wrap;html=1;fillColor=#e5dc7b;direction=south;" vertex="1" parent="1">
          <mxGeometry x="960" y="1020" width="20" height="10" as="geometry" />
        </mxCell>
        <mxCell id="dkvcmX8ApIPCvExKEDzm-84" value="" style="rounded=0;whiteSpace=wrap;html=1;fillColor=#e5dc7b;direction=south;" vertex="1" parent="1">
          <mxGeometry x="960" y="1030" width="20" height="10" as="geometry" />
        </mxCell>
        <mxCell id="dkvcmX8ApIPCvExKEDzm-85" value="" style="rounded=0;whiteSpace=wrap;html=1;fillColor=#e5dc7b;direction=south;" vertex="1" parent="1">
          <mxGeometry x="960" y="1040" width="20" height="10" as="geometry" />
        </mxCell>
        <mxCell id="dkvcmX8ApIPCvExKEDzm-86" value="" style="rounded=0;whiteSpace=wrap;html=1;fillColor=#e5dc7b;direction=south;" vertex="1" parent="1">
          <mxGeometry x="960" y="1050" width="20" height="10" as="geometry" />
        </mxCell>
        <mxCell id="dkvcmX8ApIPCvExKEDzm-87" value="" style="rounded=0;whiteSpace=wrap;html=1;fillColor=#e5dc7b;direction=south;" vertex="1" parent="1">
          <mxGeometry x="960" y="1060" width="20" height="10" as="geometry" />
        </mxCell>
        <mxCell id="dkvcmX8ApIPCvExKEDzm-88" value="" style="rounded=0;whiteSpace=wrap;html=1;fillColor=#e5dc7b;direction=south;" vertex="1" parent="1">
          <mxGeometry x="960" y="1070" width="20" height="10" as="geometry" />
        </mxCell>
        <mxCell id="dkvcmX8ApIPCvExKEDzm-89" value="" style="rounded=0;whiteSpace=wrap;html=1;fillColor=#e5dc7b;direction=south;" vertex="1" parent="1">
          <mxGeometry x="960" y="1080" width="20" height="10" as="geometry" />
        </mxCell>
        <mxCell id="dkvcmX8ApIPCvExKEDzm-94" value="&lt;span style=&quot;color: rgb(163, 159, 159); font-size: 22px;&quot;&gt;x4&lt;/span&gt;" style="rounded=0;whiteSpace=wrap;html=1;strokeColor=#454744;fillColor=#464646;direction=south;" vertex="1" parent="1">
          <mxGeometry x="1110" y="740" width="80" height="60" as="geometry" />
        </mxCell>
        <mxCell id="dkvcmX8ApIPCvExKEDzm-96" value="&lt;span style=&quot;color: rgb(163, 159, 159); font-size: 22px;&quot;&gt;x4&lt;/span&gt;" style="rounded=0;whiteSpace=wrap;html=1;strokeColor=#454744;fillColor=#464646;direction=south;" vertex="1" parent="1">
          <mxGeometry x="1110" y="810" width="80" height="60" as="geometry" />
        </mxCell>
        <mxCell id="dkvcmX8ApIPCvExKEDzm-97" value="&lt;span style=&quot;color: rgb(163, 159, 159); font-size: 22px;&quot;&gt;x4&lt;/span&gt;" style="rounded=0;whiteSpace=wrap;html=1;strokeColor=#454744;fillColor=#464646;direction=south;" vertex="1" parent="1">
          <mxGeometry x="1110" y="880" width="80" height="60" as="geometry" />
        </mxCell>
        <mxCell id="dkvcmX8ApIPCvExKEDzm-98" value="&lt;span style=&quot;color: rgb(163, 159, 159); font-size: 22px;&quot;&gt;x4&lt;/span&gt;" style="rounded=0;whiteSpace=wrap;html=1;strokeColor=#454744;fillColor=#464646;direction=south;" vertex="1" parent="1">
          <mxGeometry x="1110" y="1020" width="80" height="60" as="geometry" />
        </mxCell>
        <mxCell id="dkvcmX8ApIPCvExKEDzm-99" value="&lt;span style=&quot;color: rgb(163, 159, 159); font-size: 22px;&quot;&gt;x4&lt;/span&gt;" style="rounded=0;whiteSpace=wrap;html=1;strokeColor=#454744;fillColor=#464646;direction=south;" vertex="1" parent="1">
          <mxGeometry x="1110" y="950" width="80" height="60" as="geometry" />
        </mxCell>
        <mxCell id="dkvcmX8ApIPCvExKEDzm-100" value="&lt;span style=&quot;color: rgb(163, 159, 159); font-size: 22px;&quot;&gt;x4&lt;/span&gt;" style="rounded=0;whiteSpace=wrap;html=1;strokeColor=#454744;fillColor=#464646;direction=south;" vertex="1" parent="1">
          <mxGeometry x="1020" y="300" width="80" height="60" as="geometry" />
        </mxCell>
        <mxCell id="dkvcmX8ApIPCvExKEDzm-101" value="&lt;span style=&quot;color: rgb(163, 159, 159); font-size: 22px;&quot;&gt;x4&lt;/span&gt;" style="rounded=0;whiteSpace=wrap;html=1;strokeColor=#454744;fillColor=#464646;direction=south;" vertex="1" parent="1">
          <mxGeometry x="1020" y="370" width="80" height="60" as="geometry" />
        </mxCell>
        <mxCell id="dkvcmX8ApIPCvExKEDzm-102" value="&lt;span style=&quot;color: rgb(163, 159, 159); font-size: 22px;&quot;&gt;x4&lt;/span&gt;" style="rounded=0;whiteSpace=wrap;html=1;strokeColor=#454744;fillColor=#464646;direction=south;" vertex="1" parent="1">
          <mxGeometry x="1020" y="440" width="80" height="60" as="geometry" />
        </mxCell>
        <mxCell id="dkvcmX8ApIPCvExKEDzm-103" value="&lt;span style=&quot;color: rgb(163, 159, 159); font-size: 22px;&quot;&gt;x4&lt;/span&gt;" style="rounded=0;whiteSpace=wrap;html=1;strokeColor=#454744;fillColor=#464646;direction=south;" vertex="1" parent="1">
          <mxGeometry x="1020" y="580" width="80" height="60" as="geometry" />
        </mxCell>
        <mxCell id="dkvcmX8ApIPCvExKEDzm-104" value="&lt;span style=&quot;color: rgb(163, 159, 159); font-size: 22px;&quot;&gt;x4&lt;/span&gt;" style="rounded=0;whiteSpace=wrap;html=1;strokeColor=#454744;fillColor=#464646;direction=south;" vertex="1" parent="1">
          <mxGeometry x="1020" y="510" width="80" height="60" as="geometry" />
        </mxCell>
        <mxCell id="dkvcmX8ApIPCvExKEDzm-105" value="&lt;span style=&quot;color: rgb(163, 159, 159); font-size: 22px;&quot;&gt;x4&lt;/span&gt;" style="rounded=0;whiteSpace=wrap;html=1;strokeColor=#454744;fillColor=#464646;direction=south;" vertex="1" parent="1">
          <mxGeometry x="1110" y="300" width="80" height="60" as="geometry" />
        </mxCell>
        <mxCell id="dkvcmX8ApIPCvExKEDzm-106" value="&lt;span style=&quot;color: rgb(163, 159, 159); font-size: 22px;&quot;&gt;x4&lt;/span&gt;" style="rounded=0;whiteSpace=wrap;html=1;strokeColor=#454744;fillColor=#464646;direction=south;" vertex="1" parent="1">
          <mxGeometry x="1110" y="370" width="80" height="60" as="geometry" />
        </mxCell>
        <mxCell id="dkvcmX8ApIPCvExKEDzm-107" value="&lt;span style=&quot;color: rgb(163, 159, 159); font-size: 22px;&quot;&gt;x4&lt;/span&gt;" style="rounded=0;whiteSpace=wrap;html=1;strokeColor=#454744;fillColor=#464646;direction=south;" vertex="1" parent="1">
          <mxGeometry x="1110" y="440" width="80" height="60" as="geometry" />
        </mxCell>
        <mxCell id="dkvcmX8ApIPCvExKEDzm-108" value="&lt;span style=&quot;color: rgb(163, 159, 159); font-size: 22px;&quot;&gt;x4&lt;/span&gt;" style="rounded=0;whiteSpace=wrap;html=1;strokeColor=#454744;fillColor=#464646;direction=south;" vertex="1" parent="1">
          <mxGeometry x="1110" y="580" width="80" height="60" as="geometry" />
        </mxCell>
        <mxCell id="dkvcmX8ApIPCvExKEDzm-109" value="&lt;span style=&quot;color: rgb(163, 159, 159); font-size: 22px;&quot;&gt;x4&lt;/span&gt;" style="rounded=0;whiteSpace=wrap;html=1;strokeColor=#454744;fillColor=#464646;direction=south;" vertex="1" parent="1">
          <mxGeometry x="1110" y="510" width="80" height="60" as="geometry" />
        </mxCell>
        <mxCell id="dkvcmX8ApIPCvExKEDzm-110" value="&lt;span style=&quot;color: rgb(163, 159, 159); font-size: 22px;&quot;&gt;RCD&lt;/span&gt;" style="rounded=0;whiteSpace=wrap;html=1;strokeColor=#454744;fillColor=#464646;direction=south;" vertex="1" parent="1">
          <mxGeometry x="1090" y="655" width="80" height="70" as="geometry" />
        </mxCell>
      </root>
    </mxGraphModel>
  </diagram>
</mxfile>
